<svg width="521" height="573" viewBox="0 0 521 573" fill="none" xmlns="http://www.w3.org/2000/svg">
<path d="M260.347 0.787109C287.949 0.787109 314.421 11.7442 333.939 31.248C353.456 50.7518 364.421 77.2046 364.421 104.787L364.369 106.217L365.15 105.749C387.075 93.039 412.911 88.8285 437.741 93.9191L443.908 95.3751C457.05 98.9261 469.36 105.038 480.13 113.36C490.9 121.682 499.918 132.049 506.664 143.865C520.39 167.732 524.112 196.055 517.02 222.655C509.928 249.255 492.597 271.972 468.807 285.851L467.038 286.787L468.885 287.801C491.818 301.201 508.772 322.837 516.29 348.298C523.808 373.759 521.324 401.127 509.344 424.821L506.716 429.657C499.966 441.49 490.939 451.871 480.156 460.202C469.372 468.532 457.045 474.648 443.886 478.196C430.726 481.744 416.994 482.654 403.48 480.874C389.967 479.094 376.94 474.659 365.15 467.825L364.369 467.305L364.421 468.787C364.421 495.469 354.159 521.131 335.756 540.464C317.353 559.797 292.219 571.323 265.551 572.657L260.347 572.787C232.745 572.787 206.273 561.83 186.756 542.326C167.238 522.822 156.273 496.37 156.273 468.787L156.299 467.331L155.545 467.825C133.623 480.544 107.786 484.764 82.9529 479.681L76.8126 478.225C63.6657 474.677 51.3506 468.567 40.5759 460.245C29.8011 451.923 20.7795 441.554 14.0299 429.735C0.308285 405.876 -3.41782 377.564 3.66398 350.972C10.7458 324.379 28.0611 301.663 51.8348 287.775L53.6561 286.787L51.8088 285.799C28.8762 272.399 11.9222 250.763 4.4041 225.302C-3.11395 199.841 -0.629796 172.473 11.35 148.779L13.9518 143.917C20.7019 132.074 29.7323 121.683 40.522 113.346C51.3116 105.009 63.6468 98.889 76.8157 95.3404C89.9846 91.7919 103.726 90.8847 117.248 92.6712C130.769 94.4577 143.803 98.9025 155.597 105.749L156.273 106.217V104.787C156.273 78.1048 166.536 52.4432 184.938 33.11C203.341 13.7768 228.475 2.25122 255.143 0.917109L260.347 0.787109Z" fill="#FFC3EC"/>
</svg>
